<?xml version="1.0" encoding="UTF-8"?>
<!DOCTYPE svg PUBLIC "-//W3C//DTD SVG 1.1//EN" "http://www.w3.org/Graphics/SVG/1.1/DTD/svg11.dtd">
<!-- Creator: CorelDRAW -->
<svg xmlns="http://www.w3.org/2000/svg" xml:space="preserve" width="512px" height="512px" version="1.1" style="shape-rendering:geometricPrecision; text-rendering:geometricPrecision; image-rendering:optimizeQuality; fill-rule:evenodd; clip-rule:evenodd"
viewBox="0 0 512 512"
 xmlns:xlink="http://www.w3.org/1999/xlink"
 xmlns:xodm="http://www.corel.com/coreldraw/odm/2003">
 <defs>
  <style type="text/css">
   <![CDATA[
    .fil0 {fill:#606062}
    .fil3 {fill:#99A4AC}
    .fil1 {fill:#D9F2F2}
    .fil2 {fill:#F1F1F1}
    .fil4 {fill:#FFE600}
   ]]>
  </style>
 </defs>
 <g id="Layer_x0020_1">
  <metadata id="CorelCorpID_0Corel-Layer"/>
  <path class="fil0" d="M306.52 391.81l-99.13 0c-9.21,0 -9.21,-14 0,-14l99.13 0c9.21,0 9.21,14 0,14zm86.15 105.96l-353.88 0c-21.38,0 -38.77,-19.06 -38.77,-42.5l0 -398.46c0,-23.43 17.39,-42.5 38.77,-42.5l286.06 0c2.11,0 4.1,0.95 5.43,2.58l66.7 81.87c1.75,1.72 2.67,2.85 2.69,5.79l0 386.22c0,3.87 -3.14,7 -7,7zm-353.88 -469.46c-14.4,0 -24.77,13.81 -24.77,28.5l0 398.46c0,15.72 11.11,28.5 24.77,28.5l346.88 0 0 -372.49 -61.16 0c-3.86,0 -6.99,-3.14 -6.99,-7l0 -75.97 -278.73 0zm338.92 68.97l-46.2 -56.71 0 56.71 46.2 0zm91.73 400.49c-2.21,0 -4.3,-1.04 -5.62,-2.81l-34.27 -45.98c-0.9,-1.21 -1.38,-2.68 -1.38,-4.18l0 -398.58c0,-17.64 14.35,-31.99 31.99,-31.99l19.83 0c17.64,0 31.99,14.35 31.99,31.99l0 398.57 -1.51 4.34 -35.5 45.92c-1.32,1.72 -3.37,2.72 -5.53,2.72zm-27.28 -419.56l0 359.58 55.82 0 0 -359.58 -55.82 0zm6.95 373.58l20.43 27.41 21.18 -27.41 -41.61 0zm-6.95 -387.58l55.82 0 0 -17.99c0,-9.92 -8.07,-18 -17.99,-18l-19.84 0c-9.92,0 -17.99,8.08 -17.99,18l0 17.99zm-288.41 142.44l-97.76 0c-3.87,0 -7,-3.13 -7,-6.99l0 -72.85c0,-3.87 3.13,-7 7,-7l97.76 0c3.87,0 7,3.13 7,7l0 72.85c0,3.86 -3.13,6.99 -7,6.99zm-90.77 -13.99l83.77 0 0 -58.85 -83.77 0 0 58.85zm90.77 123.27l-97.76 0c-3.87,0 -7,-3.14 -7,-7l0 -72.85c0,-3.87 3.13,-7 7,-7l97.76 0c3.87,0 7,3.13 7,7l0 72.85c0,3.86 -3.13,7 -7,7zm-90.77 -14l83.77 0 0 -58.85 -83.77 0 0 58.85zm90.77 123.27l-97.76 0c-3.87,0 -7,-3.14 -7,-7l0 -72.85c0,-3.87 3.13,-7 7,-7l97.76 0c3.87,0 7,3.13 7,7l0 72.85c0,3.86 -3.13,7 -7,7zm-90.77 -14l83.77 0 0 -58.85 -83.77 0 0 58.85zm279.07 -253.11l-170.19 0c-9.21,0 -9.22,-14 0,-14l170.19 0c9.22,0 9.21,14 0,14zm-35.53 25.29l-99.13 0c-9.21,0 -9.21,-14 0,-14l99.13 0c9.21,0 9.21,14 0,14zm35.53 78.92l-170.19 0c-9.22,0 -9.22,-14 0,-14l170.19 0c9.22,0 9.22,14 0,14zm-35.53 25.3l-99.13 0c-9.21,0 -9.21,-14 0,-14l99.13 0c9.21,0 9.21,14 0,14zm35.53 78.91l-170.19 0c-9.22,0 -9.22,-13.99 0,-13.99l170.19 0c9.22,0 9.22,13.99 0,13.99z"/>
  <path class="fil1" d="M171.86 144.09l170.19 0c9.22,0 9.21,14 0,14l-170.19 0c-9.21,0 -9.22,-14 0,-14zm35.53 25.29l99.13 0c9.21,0 9.21,14 0,14l-99.13 0c-9.21,0 -9.21,-14 0,-14zm-35.53 78.92l170.19 0c9.22,0 9.22,14 0,14l-170.19 0c-9.22,0 -9.22,-14 0,-14zm35.53 25.3l99.13 0c9.21,0 9.21,14 0,14l-99.13 0c-9.21,0 -9.21,-14 0,-14zm-35.53 78.92l170.19 0c9.22,0 9.22,13.99 0,13.99l-170.19 0c-9.22,0 -9.22,-13.99 0,-13.99zm35.53 25.29l99.13 0c9.21,0 9.21,14 0,14l-99.13 0c-9.21,0 -9.21,-14 0,-14zm-168.6 105.96l346.88 0 0 -372.49 -61.16 0c-3.86,0 -6.99,-3.14 -6.99,-7l0 -75.97 -278.73 0c-14.4,0 -24.77,13.81 -24.77,28.5l0 398.46c0,15.72 11.11,28.5 24.77,28.5zm121.96 -356.96l0 72.85c0,3.86 -3.13,6.99 -7,6.99l-97.76 0c-3.87,0 -7,-3.13 -7,-6.99l0 -72.85c0,-3.87 3.13,-7 7,-7l97.76 0c3.87,0 7,3.13 7,7zm-104.76 102.27l97.76 0c3.87,0 7,3.13 7,7l0 72.85c0,3.86 -3.13,7 -7,7l-97.76 0c-3.87,0 -7,-3.14 -7,-7l0 -72.85c0,-3.87 3.13,-7 7,-7zm0 109.27l97.76 0c3.87,0 7,3.13 7,7l0 72.85c0,3.86 -3.13,7 -7,7l-97.76 0c-3.87,0 -7,-3.14 -7,-7l0 -72.85c0,-3.87 3.13,-7 7,-7z"/>
  <polygon class="fil2" points="146.75,192.66 146.75,133.81 62.98,133.81 62.98,192.66 "/>
  <polygon class="fil2" points="146.75,243.08 62.98,243.08 62.98,301.93 146.75,301.93 "/>
  <polygon class="fil2" points="146.75,352.35 62.98,352.35 62.98,411.2 146.75,411.2 "/>
  <polygon class="fil3" points="331.51,97.28 377.71,97.28 331.51,40.57 "/>
  <path class="fil3" d="M442.16 46.22l0 17.99 55.82 0 0 -17.99c0,-9.92 -8.07,-18 -17.99,-18l-19.84 0c-9.92,0 -17.99,8.08 -17.99,18z"/>
  <polygon class="fil4" points="497.98,78.21 442.16,78.21 442.16,437.79 497.98,437.79 "/>
  <polygon class="fil3" points="490.72,451.79 449.11,451.79 469.54,479.2 "/>
 </g>
</svg>
